<?xml version="1.0" encoding="utf-8"?>
<!-- Generator: Adobe Illustrator 21.0.0, SVG Export Plug-In . SVG Version: 6.00 Build 0)  -->
<svg version="1.1" id="Layer_3" xmlns="http://www.w3.org/2000/svg" xmlns:xlink="http://www.w3.org/1999/xlink" x="0px" y="0px"
	 viewBox="0 0 780 780" style="enable-background:new 0 0 780 780;" xml:space="preserve">
<style type="text/css">
	.st0{fill:#612332;}
	.st1{fill:#FFFFFF;}
</style>
<g>
	<path class="st0" d="M390,774c-51.8,0-102.1-10.2-149.5-30.2c-45.7-19.3-86.8-47-122.1-82.3c-35.3-35.3-63-76.3-82.3-122.1
		C16.2,492.2,6,441.9,6,390s10.2-102.1,30.2-149.5c19.3-45.7,47-86.8,82.3-122.1c35.3-35.3,76.3-63,122.1-82.3
		C287.9,16.2,338.2,6,390,6s102.1,10.2,149.5,30.2c45.7,19.3,86.8,47,122.1,82.3c35.3,35.3,63,76.3,82.3,122.1
		c20,47.3,30.2,97.6,30.2,149.5s-10.2,102.1-30.2,149.5c-19.3,45.7-47,86.8-82.3,122.1c-35.3,35.3-76.3,63-122.1,82.3
		C492.2,763.9,441.9,774,390,774z"/>
	<path class="st1" d="M390,12c51,0,100.5,10,147.1,29.7c45,19,85.4,46.3,120.2,81c34.7,34.7,62,75.1,81,120.2
		C758.1,289.5,768,339,768,390s-10,100.5-29.7,147.1c-19,45-46.3,85.4-81,120.2c-34.7,34.7-75.1,62-120.2,81
		C490.6,758.1,441.1,768,390,768s-100.5-10-147.1-29.7c-45-19-85.4-46.3-120.2-81c-34.7-34.7-62-75.1-81-120.2
		C22,490.6,12,441.1,12,390s10-100.5,29.7-147.1c19-45,46.3-85.4,81-120.2c34.7-34.7,75.1-62,120.2-81C289.5,22,339,12,390,12
		 M390,0C174.6,0,0,174.6,0,390s174.6,390,390,390s390-174.6,390-390S605.4,0,390,0L390,0z"/>
</g>
<g>
	<path class="st0" d="M390,732.8c-91.5,0-177.6-35.7-242.3-100.4C82.9,567.6,47.3,481.6,47.3,390s35.6-177.6,100.4-242.3
		C212.4,82.9,298.5,47.3,390,47.3s177.6,35.6,242.3,100.4c64.7,64.7,100.4,150.8,100.4,242.3s-35.7,177.6-100.4,242.3
		C567.6,697.1,481.6,732.8,390,732.8z"/>
	<path class="st1" d="M390,51.3c45.7,0,90.1,9,131.8,26.6c40.3,17.1,76.6,41.5,107.7,72.6c31.1,31.1,55.5,67.3,72.6,107.7
		c17.7,41.8,26.6,86.1,26.6,131.8s-9,90.1-26.6,131.8c-17.1,40.3-41.5,76.6-72.6,107.7c-31.1,31.1-67.3,55.5-107.7,72.6
		c-41.8,17.7-86.1,26.6-131.8,26.6s-90.1-9-131.8-26.6c-40.3-17.1-76.6-41.5-107.7-72.6c-31.1-31.1-55.5-67.3-72.6-107.7
		C60.3,480.1,51.3,435.8,51.3,390s9-90.1,26.6-131.8c17.1-40.3,41.5-76.6,72.6-107.7S217.8,95,258.2,77.9
		C299.9,60.3,344.3,51.3,390,51.3 M390,43.3C198.5,43.3,43.3,198.5,43.3,390S198.5,736.8,390,736.8S736.8,581.5,736.8,390
		S581.5,43.3,390,43.3L390,43.3z"/>
</g>
<g>
	<g>
		<path class="st1" d="M103.2,395.7c-6,5.1-10.8,11-14.4,17.8c-3.3,6.1-5.5,12.6-6.5,19.6c-1,6.6-0.8,13.3,0.4,20
			c2.2,12.1,7.9,23.4,16.1,31.6c8.9,8.7,19.7,13.7,31.5,14.1c11.7,0.5,23.1-2.1,34-7.9c9.5-5,18.9-12.6,27.8-22.6
			c17-18.8,30-42.9,41.1-64c1.5-3,34.2-68.3,50.5-82.2c0.4-0.3,0.6-0.3,0.9-0.3c2.8-1.6,6.1,0.7,7.2,3.9c1.5,4.4-1.3,10-1.3,10
			c-25.4,60-26.4,94-24.8,109.6c2.4-8,6.3-20.6,12.3-35.7c6.1-15.5,13.2-30.6,21.1-44.8c9.7-17.9,20.5-34.3,32.3-48.9
			c0,0,1-1.5,2.7-0.8c3.7,2.2,10.2,8.1,6,18.7c-0.4,1.1-20.3,57.1-23.5,68.9c0,0-26.8,84.2,4,84.4c2.4,0,6-0.3,9.7-1.9
			c2.3-0.9,5.5-3,7.8-6.6c0.3-0.6,0.8-1.5,1.1-2.2c-6.4-1.2-8.9-6.3-9.4-10.8c-0.5-7.3,4.4-9.1,4.8-9.1c3-1.1,5-0.3,6.1,0.5
			c3.1,2.1,3.7,6.2,3.9,7c0.4,2.7,0.4,5.5,0,8c5.5-1,15.7-4.9,26.4-9.2c13.4-5.2,28.8-11.1,42.8-15c17-4.3,28.3-4.6,34.9-0.8
			c3.9,2.2,6.1,5.9,6.8,10.6c0.1,0.6,0.4,2.9-0.2,5.6c-0.6,2.9-2.2,6.7-7.2,9.1c-1.1,0.4-2.5,0.6-2.5,0.6c-1.6,0.2-3.4-0.3-4.2-3
			c-0.8-2.7,1.4-4,3.6-5.1c0.6-0.1,0.9-0.3,1.5-0.6c2.5-1,5.9-5.9,3.3-10.3c-0.8-1.3-1.9-2.3-3.3-3.1c-5.5-3.2-16-2.8-31.4,1.3
			c-13.9,3.7-29.2,9.8-42.6,15c-10.8,4.2-19.9,7.6-25.9,9.1c-2.1,0.5-2.9,0.4-2.9,0.4c-0.4,1.5-1,2.9-1.8,4.1
			c-2.2,3.7-5.6,6.6-9.9,8.5c-2.4,1.2-4.7,1.7-6.9,2c-4.7,0.7-8.2,0-8.6-0.1c-7.8-1-13.6-5-17.3-11.4c-3.8-6.4-5.5-15.6-5.4-26.8
			c0.2-9,1.7-19.5,4.1-31.2c1.9-8.7,4.3-16.8,6.1-23.1c4.1-14,17.4-51,24-71c-9,12.1-17.4,25.2-25.2,39.2
			c-7.7,14.2-14.7,29-20.8,44.3c-9.6,24.2-13.7,41.9-14.4,44.4c0,0.2,0,0.2,0,0.2c0,1.2-0.5,1.9-1.4,2.4c-1.5,0.4-3.3-0.5-3.3-0.5
			c-25-17.1,2.1-91.6,14.3-121.2c-16.9,23.3-39.9,69.2-40.2,69.6c0,0,0,0,0,0.2c-11,21.3-24.4,45.7-41.7,64.9
			c-9.4,10.4-19.1,18.3-29.1,23.6c-7.4,3.9-15,6.5-23.1,7.7c-4.3,0.6-8.7,0.9-13.1,0.8c-12.9-0.7-24.9-5.9-34.3-15.5
			c-8.9-8.9-15.1-20.9-17.5-34c-1.2-7-1.3-14.2-0.4-21.2c1.1-7.6,3.4-14.5,7-21.3c3.8-7,8.8-13.3,15.2-18.9c3.9-3.4,8-6.4,12.8-9.1
			c1.3-0.8,15.2-9.3,27.9-9.8c0,0,10.3-0.5,9.9,8.3c0,0-0.2,1.6-1.6,1.2c-0.8-0.1-20.4-3.8-40.6,8.5
			C105.8,393.3,103.2,395.7,103.2,395.7z M338.7,460.9c-0.2-0.2-0.9-0.7-2.4-0.2c-0.2,0.2-2,1.1-1.9,4.7c0.2,2.4,1.3,6.2,6.1,7.1
			c0.4-2.5,0.2-5,0-7.8C340,461.7,338.7,460.9,338.7,460.9z"/>
		<path class="st1" d="M373,403.9c0,0-4.2,11-9.6,21.6c-3.3,6.3-6.3,11.3-9.2,15c-1.9,2.3-3.6,4.1-5.4,5.2c-0.4,0.3-8.1,6-14.7-0.4
			c-6.8-7-0.6-29.3,1.4-35.8c2.3-7.3,9.1-27.4,11.1-35.3c0.4-1.3,1.7-1.9,2.8-1.2c3.9,2,10.5,7.6,6,18.5c-1,2.6-18.3,50.2-11.9,51.4
			c0,0,1.9,0.5,4.7-2.3c0.7-0.7,1.6-1.6,2.6-2.8c2.7-3.4,5.6-8.2,8.7-14.3c5.4-10.4,9.5-21,9.4-21.2c0.4-1.1,1.8-1.7,2.8-1.2
			C372.8,401.5,373.4,402.7,373,403.9z M352.9,359.7c2.1-6.3,9.3-3.6,9.8,1.1c0.4,4.3-4.1,13.8-8,10.6
			C354.7,371.4,349.9,368.6,352.9,359.7z"/>
		<path class="st1" d="M442.6,393.5c-0.2,0-4.2,11-9.8,21.7c-3.3,6.3-6.3,11.3-9.2,15c-1.9,2.3-3.6,4.1-5.4,5.2
			c-0.2,0.2-5.2,3.8-10.5,2.2c-0.4,1.5-0.6,2.7-0.8,3.7c-4.1,16.4-6.7,28.6-4.8,33.5c0.3,0.8-0.2,1.6-1.1,1.8
			c-2.4,0.2-5.1-0.8-7.1-3.5c-2.7-3.6-3.6-9.3-3-15.8c0.7-7.5,1.6-13.1,3.3-19.1c0.7-3.1,1.7-7.3,3-12.1
			c-4.3,7.2-8.8,11.9-13.1,14.2c-1.5,0.6-2.8,1.2-4.2,1.4c-2,0.3-3.8,0-5.5-0.6c-6.1-2.1-9.7-7.2-10.4-14.8c-0.7-8.9,2.1-20.5,8-32
			c6.1-11.7,14.1-20.9,22-25.5c6.5-3.6,11.6-4.3,15.5-2.1c2,1.3,3.5,3.1,4.4,5.1c0.9-3.1,1.7-6.1,2.2-7.9c0.4-1.3,1.7-1.9,2.8-1.2
			c3.9,2,10.5,7.6,6,18.5c-1,2.6-18.3,50.2-11.9,51.4c0,0,1.9,0.5,4.7-2.3c0.9-0.7,1.6-1.6,2.6-2.8c2.7-3.4,5.6-8.2,8.7-14.3
			c5.4-10.4,9.5-21,9.4-21.2c0.4-1.1,1.8-1.7,2.8-1.2C442.5,391.1,442.9,392.3,442.6,393.5z M406.1,395.6c0.8-2.5,1.9-5.7,3.1-8.9
			c0.4-2.9,2.6-16.2-3.5-16.7c0,0-3.8-0.2-11.7,11.4c-2.8,4-5.8,9.3-9.7,16.5c0,0-13.8,26.7-10.2,36.3c0.7,1.9,1.9,3.1,3.7,3.2
			c1.4,0,3-0.2,4.4-1.1c5.4-2.8,11.4-10.9,17.3-23.6c2.3-4.9,4.2-9.6,5.4-13.2C405.5,397.9,406.1,395.6,406.1,395.6z"/>
		<path class="st1" d="M506.4,383.9c-0.2,0-4.2,11-9.8,21.7c-3.3,6.3-6.3,11.3-9.2,15c-1.9,2.3-3.6,4.1-5.4,5.2
			c-0.4,0.3-8.1,6-14.7-0.4c-2.6-2.8-3.4-7.9-3-13.6c-0.3,0.8-0.8,1.5-1,2.4c-6.1,11.3-11.8,17.4-17.7,18.3c-4.3,0.6-7.6-0.3-10-2.9
			c-2.4-2.8-3.7-7.1-3.3-12.9c0.2-4,0.9-7.3,1-7.8c0.8-5.1,2.1-8.9,3.3-13.9c1.4-5.2,6.7-21,6.7-21c2.2-6.5,3.8-12,4.5-15.1
			c0.2-1.2,1.7-1.9,2.8-1.2c3.7,2.2,10,8.1,6,18.5c0,0-5.5,15.2-7.5,21.9c-1.3,4.8-2.6,9.4-3.6,13.5c0,0-3.7,14,0.4,14.6
			c2.9,0.6,6-2.7,8-5.2c5-6.9,10.5-18.4,15.5-32.9c2.5-8.4,8.7-26.3,10.6-33.8c0.4-1.3,1.7-1.9,2.8-1.2c3.9,2,10.5,7.6,6,18.5
			c-1,2.6-18.3,50.2-11.9,51.4c0,0,1.9,0.5,4.7-2.3c0.9-0.7,1.6-1.6,2.6-2.8c2.7-3.4,5.6-8.2,8.7-14.3c5.4-10.4,9.5-21,9.4-21.2
			c0.4-1.1,1.8-1.7,2.8-1.2C506.3,381.6,506.9,382.7,506.4,383.9z"/>
		<path class="st1" d="M516.1,422.9c-3.9-0.4-9.2-1.6-13.1-6c-2.1-2.3-3.4-5.3-4.1-9c-1.4-5.6-0.9-11.3,0.1-16.4
			c1.7-8.7,5.1-15.6,5.7-16.7c3.6-7.9,8.3-13.9,12.1-17.8c5-5.4,9.2-7.8,9.4-8c5.7-3.3,10.6-4.2,14.2-2.7c0.6,0.3,3.4,1.5,4.9,4.5
			c1.2,2.8,1.1,6-0.3,9.9c-1,2.4-3.9,8.4-12,15c-5.9,4.7-12.7,8.5-20.4,10.9c-2.7,8.8-3.4,14.7-3.4,14.7
			c-1.4,10.4,3.9,19.2,14.5,16.6c7.5-2.3,13.7-8.5,17.6-13.6c4.9-6.3,7.8-12.2,7.8-12.4c4.4-9.1,7.6-17.5,7.6-17.5
			c0.4-1.1,1.8-1.7,2.8-1.2c1.1,0.4,1.6,1.6,1.2,2.8c0,0-3.1,8.5-7.7,17.8c-0.1,0.6-3,6.7-8,13.2c-7.1,8.9-15,14.5-23,15.9
			C521.8,422.7,519.5,423.2,516.1,422.9z M541.2,358.1c0.7-3.1-0.4-7.9-3.4-7.9c0,0-3.9-0.4-12.3,11.2c-5,6.7-8.4,13.7-10.9,19.6
			c7-2.6,12.3-6.2,15.7-8.9c3.2-2.9,6.1-5.9,8.3-8.8C540.5,360.2,541.2,358.1,541.2,358.1z"/>
		<path class="st1" d="M592.2,371.1c0,0-4.2,11-9.6,21.6c-3.3,6.3-6.5,11.4-9.4,15c-1.9,2.3-3.6,4.1-5.2,5.2
			c-0.4,0.3-8.1,6-14.7-0.4c-7-6.9-0.6-29.1,1.4-35.8c4.7-16.9,21-62.8,23.9-74.6c0.4-1.3,1.7-1.9,2.8-1.2c3.9,2.2,10,8.1,6,18.7
			c-0.4,1.1-16.9,48.9-20.1,60.8c-4.1,13.8-8.3,29-4.6,29.7c0,0,1.7,0.5,4.7-2.3c0.7-0.7,1.6-1.6,2.4-2.8c2.7-3.4,5.6-8.2,8.9-14.3
			c5.2-10.4,9.3-21,9.4-21.2c0.4-1.1,1.6-1.6,2.8-1.2C592,368.7,592.6,369.9,592.2,371.1z"/>
		<path class="st1" d="M624.3,366.3c0,0-4.2,11-9.6,21.6c-3.3,6.3-6.3,11.3-9.2,15c-1.9,2.3-3.6,4.1-5.4,5.2
			c-0.4,0.3-8.1,6-14.7-0.4c-6.8-7-0.6-29.3,1.4-35.8c2.3-7.3,9.1-27.4,11.1-35.3c0.4-1.3,1.7-1.9,2.8-1.2c3.9,2,10.5,7.6,6,18.5
			c-1,2.6-18.3,50.2-11.9,51.4c0,0,1.9,0.5,4.7-2.3c0.7-0.7,1.6-1.6,2.6-2.8c2.7-3.4,5.6-8.2,8.7-14.3c5.4-10.4,9.5-21,9.4-21.2
			c0.4-1.1,1.8-1.7,2.8-1.2C624.1,363.9,624.7,365.1,624.3,366.3z M604.2,322.1c2.1-6.3,9.3-3.6,9.8,1.1c0.4,4.3-4.1,13.8-8,10.6
			C606,333.8,601.2,331,604.2,322.1z"/>
		<path class="st1" d="M633.9,405.3c-3.9-0.4-9.2-1.6-13.1-6c-2.1-2.3-3.4-5.3-4.1-9c-1.4-5.6-0.9-11.3,0.1-16.4
			c1.7-8.7,5.1-15.6,5.7-16.7c3.6-7.9,8.3-13.9,12.1-17.8c5-5.4,9.2-7.8,9.4-8c5.7-3.3,10.6-4.2,14.2-2.7c0.6,0.3,3.4,1.5,4.9,4.5
			c1.2,2.8,1.1,6-0.3,9.9c-1,2.4-3.9,8.4-12,15c-5.9,4.7-12.7,8.5-20.4,10.9c-2.7,8.8-3.4,14.7-3.4,14.7
			c-1.4,10.4,3.9,19.2,14.5,16.6c7.5-2.3,13.7-8.5,17.6-13.6c4.9-6.3,7.8-12.2,7.8-12.4c4.4-9.1,7.6-17.5,7.6-17.5
			c0.4-1.1,1.8-1.7,2.8-1.2c1.1,0.4,1.6,1.6,1.2,2.8c0,0-3.1,8.5-7.7,17.8c-0.1,0.6-3,6.7-8,13.2c-7.1,8.9-15,14.5-23,15.9
			C639.7,405,637.3,405.6,633.9,405.3z M659,340.5c0.7-3.1-0.4-7.9-3.4-7.9c0,0-3.9-0.4-12.3,11.2c-5,6.7-8.4,13.7-10.9,19.6
			c7-2.6,12.3-6.2,15.7-8.9c3.2-2.9,6.1-5.9,8.3-8.8C658.3,342.6,659,340.5,659,340.5z"/>
	</g>
	<g>
		<g>
			<polygon class="st1" points="374.6,168.2 385.9,186.3 407.2,187.3 393.4,203.7 399.1,224.3 379.3,216.2 361.4,227.9 363,206.6 
				346.3,193.3 367,188.2 			"/>
		</g>
		<g>
			<polygon class="st1" points="308.6,200.1 315.8,211.6 329.4,212.3 320.6,222.7 324.2,235.8 311.6,230.7 300.2,238.1 301.2,224.6 
				290.6,216.1 303.8,212.8 			"/>
		</g>
		<g>
			<polygon class="st1" points="446.2,188 453.4,199.6 467,200.2 458.2,210.6 461.8,223.7 449.2,218.6 437.9,226.1 438.8,212.5 
				428.2,204 441.4,200.7 			"/>
		</g>
		<g>
			<polygon class="st1" points="256.2,219.7 261.6,228.3 271.6,228.8 265.1,236.5 267.8,246.2 258.4,242.4 250,247.9 250.7,237.9 
				242.9,231.6 252.7,229.1 			"/>
		</g>
		<g>
			<polygon class="st1" points="500.1,196.4 505.5,204.9 515.5,205.4 509,213.1 511.7,222.8 502.3,219 493.9,224.6 494.6,214.5 
				486.8,208.2 496.6,205.8 			"/>
		</g>
	</g>
	<g>
		<g>
			<polygon class="st1" points="428.5,653.7 417.3,635.6 395.9,634.6 409.7,618.2 404.1,597.6 423.8,605.7 441.7,593.9 440.2,615.3 
				456.8,628.6 436.1,633.7 			"/>
		</g>
		<g>
			<polygon class="st1" points="494.5,621.8 487.3,610.2 473.7,609.6 482.5,599.2 478.9,586.1 491.5,591.2 502.9,583.7 501.9,597.3 
				512.5,605.8 499.3,609.1 			"/>
		</g>
		<g>
			<polygon class="st1" points="356.9,633.9 349.7,622.3 336.1,621.7 344.9,611.3 341.3,598.2 353.9,603.3 365.3,595.8 364.3,609.4 
				374.9,617.9 361.7,621.2 			"/>
		</g>
		<g>
			<polygon class="st1" points="546.9,602.2 541.6,593.6 531.5,593.1 538,585.4 535.3,575.7 544.7,579.5 553.1,573.9 552.4,584 
				560.3,590.3 550.5,592.7 			"/>
		</g>
		<g>
			<polygon class="st1" points="303,625.5 297.7,617 287.6,616.5 294.1,608.8 291.4,599 300.8,602.8 309.2,597.3 308.5,607.4 
				316.4,613.7 306.6,616.1 			"/>
		</g>
	</g>
</g>
</svg>
